{
    "asset" : {
        "generator" : "Khronos glTF Blender I/O v0.9.36",
        "version" : "2.0"
    },
    "scene" : 0,
    "scenes" : [
        {
            "name" : "Scene",
            "nodes" : [
                0,
                1,
                2
            ]
        }
    ],
    "nodes" : [
        {
            "mesh" : 0,
            "name" : "mesh340565441",
            "translation" : [
                0.002365116961300373,
                -0.024121612310409546,
                -0.046547919511795044
            ]
        },
        {
            "name" : "Lamp",
            "rotation" : [
                0.16907575726509094,
                0.7558803558349609,
                -0.27217137813568115,
                0.570947527885437
            ],
            "translation" : [
                4.076245307922363,
                5.903861999511719,
                -1.0054539442062378
            ]
        },
        {
            "name" : "Camera",
            "rotation" : [
                0.483536034822464,
                0.33687159419059753,
                -0.20870360732078552,
                0.7804827094078064
            ],
            "translation" : [
                7.481131553649902,
                5.34366512298584,
                6.5076398849487305
            ]
        }
    ],
    "materials" : [
        {
            "name" : "mat15",
            "pbrMetallicRoughness" : {}
        },
        {
            "name" : "mat8",
            "pbrMetallicRoughness" : {}
        },
        {
            "name" : "mat12",
            "pbrMetallicRoughness" : {}
        },
        {
            "name" : "mat5",
            "pbrMetallicRoughness" : {}
        },
        {
            "name" : "mat16",
            "pbrMetallicRoughness" : {}
        },
        {
            "name" : "mat22",
            "pbrMetallicRoughness" : {}
        },
        {
            "name" : "mat17",
            "pbrMetallicRoughness" : {}
        },
        {
            "name" : "mat9",
            "pbrMetallicRoughness" : {}
        }
    ],
    "meshes" : [
        {
            "name" : "mesh340565441",
            "primitives" : [
                {
                    "attributes" : {
                        "POSITION" : 0,
                        "NORMAL" : 1,
                        "TEXCOORD_0" : 2
                    },
                    "indices" : 3,
                    "material" : 0
                },
                {
                    "attributes" : {
                        "POSITION" : 4,
                        "NORMAL" : 5,
                        "TEXCOORD_0" : 6
                    },
                    "indices" : 7,
                    "material" : 1
                },
                {
                    "attributes" : {
                        "POSITION" : 8,
                        "NORMAL" : 9,
                        "TEXCOORD_0" : 10
                    },
                    "indices" : 11,
                    "material" : 2
                },
                {
                    "attributes" : {
                        "POSITION" : 12,
                        "NORMAL" : 13,
                        "TEXCOORD_0" : 14
                    },
                    "indices" : 15,
                    "material" : 3
                },
                {
                    "attributes" : {
                        "POSITION" : 16,
                        "NORMAL" : 17,
                        "TEXCOORD_0" : 18
                    },
                    "indices" : 19,
                    "material" : 4
                },
                {
                    "attributes" : {
                        "POSITION" : 20,
                        "NORMAL" : 21,
                        "TEXCOORD_0" : 22
                    },
                    "indices" : 23,
                    "material" : 5
                },
                {
                    "attributes" : {
                        "POSITION" : 24,
                        "NORMAL" : 25,
                        "TEXCOORD_0" : 26
                    },
                    "indices" : 27,
                    "material" : 6
                },
                {
                    "attributes" : {
                        "POSITION" : 28,
                        "NORMAL" : 29,
                        "TEXCOORD_0" : 30
                    },
                    "indices" : 31,
                    "material" : 7
                }
            ]
        }
    ],
    "accessors" : [
        {
            "bufferView" : 0,
            "componentType" : 5126,
            "count" : 108,
            "max" : [
                0.0400228388607502,
                0.016526848077774048,
                0.02638266421854496
            ],
            "min" : [
                -0.03262501582503319,
                -0.026024948805570602,
                -0.01708170771598816
            ],
            "type" : "VEC3"
        },
        {
            "bufferView" : 1,
            "componentType" : 5126,
            "count" : 108,
            "type" : "VEC3"
        },
        {
            "bufferView" : 2,
            "componentType" : 5126,
            "count" : 108,
            "type" : "VEC2"
        },
        {
            "bufferView" : 3,
            "componentType" : 5123,
            "count" : 156,
            "type" : "SCALAR"
        },
        {
            "bufferView" : 4,
            "componentType" : 5126,
            "count" : 48,
            "max" : [
                0.039527881890535355,
                0.021751398220658302,
                0.0034987160470336676
            ],
            "min" : [
                0.008050795644521713,
                -0.03028852678835392,
                -0.02130250819027424
            ],
            "type" : "VEC3"
        },
        {
            "bufferView" : 5,
            "componentType" : 5126,
            "count" : 48,
            "type" : "VEC3"
        },
        {
            "bufferView" : 6,
            "componentType" : 5126,
            "count" : 48,
            "type" : "VEC2"
        },
        {
            "bufferView" : 7,
            "componentType" : 5123,
            "count" : 72,
            "type" : "SCALAR"
        },
        {
            "bufferView" : 8,
            "componentType" : 5126,
            "count" : 72,
            "max" : [
                0.006677715107798576,
                -0.00796771701425314,
                0.0016230987384915352
            ],
            "min" : [
                0.0005963731091469526,
                -0.016452893614768982,
                -0.006860456895083189
            ],
            "type" : "VEC3"
        },
        {
            "bufferView" : 9,
            "componentType" : 5126,
            "count" : 72,
            "type" : "VEC3"
        },
        {
            "bufferView" : 10,
            "componentType" : 5126,
            "count" : 72,
            "type" : "VEC2"
        },
        {
            "bufferView" : 11,
            "componentType" : 5123,
            "count" : 132,
            "type" : "SCALAR"
        },
        {
            "bufferView" : 12,
            "componentType" : 5126,
            "count" : 192,
            "max" : [
                0.010947542265057564,
                0.014290161430835724,
                -0.0034773126244544983
            ],
            "min" : [
                -0.03270750865340233,
                -0.030288532376289368,
                -0.031168004497885704
            ],
            "type" : "VEC3"
        },
        {
            "bufferView" : 13,
            "componentType" : 5126,
            "count" : 192,
            "type" : "VEC3"
        },
        {
            "bufferView" : 14,
            "componentType" : 5126,
            "count" : 192,
            "type" : "VEC2"
        },
        {
            "bufferView" : 15,
            "componentType" : 5123,
            "count" : 288,
            "type" : "SCALAR"
        },
        {
            "bufferView" : 16,
            "componentType" : 5126,
            "count" : 136,
            "max" : [
                0.04269063472747803,
                0.03677587956190109,
                0.08214884251356125
            ],
            "min" : [
                -0.03546108305454254,
                -0.032241448760032654,
                -0.033345337957143784
            ],
            "type" : "VEC3"
        },
        {
            "bufferView" : 17,
            "componentType" : 5126,
            "count" : 136,
            "type" : "VEC3"
        },
        {
            "bufferView" : 18,
            "componentType" : 5126,
            "count" : 136,
            "type" : "VEC2"
        },
        {
            "bufferView" : 19,
            "componentType" : 5123,
            "count" : 228,
            "type" : "SCALAR"
        },
        {
            "bufferView" : 20,
            "componentType" : 5126,
            "count" : 24,
            "max" : [
                -0.0005552074871957302,
                0.03134443610906601,
                0.013405873440206051
            ],
            "min" : [
                -0.012759549543261528,
                0.02070648781955242,
                0.002598406048491597
            ],
            "type" : "VEC3"
        },
        {
            "bufferView" : 21,
            "componentType" : 5126,
            "count" : 24,
            "type" : "VEC3"
        },
        {
            "bufferView" : 22,
            "componentType" : 5126,
            "count" : 24,
            "type" : "VEC2"
        },
        {
            "bufferView" : 23,
            "componentType" : 5123,
            "count" : 36,
            "type" : "SCALAR"
        },
        {
            "bufferView" : 24,
            "componentType" : 5126,
            "count" : 48,
            "max" : [
                0.019491106271743774,
                0.022521553561091423,
                0.0629642978310585
            ],
            "min" : [
                -0.00846253801137209,
                -0.038710739463567734,
                -0.00800760742276907
            ],
            "type" : "VEC3"
        },
        {
            "bufferView" : 25,
            "componentType" : 5126,
            "count" : 48,
            "type" : "VEC3"
        },
        {
            "bufferView" : 26,
            "componentType" : 5126,
            "count" : 48,
            "type" : "VEC2"
        },
        {
            "bufferView" : 27,
            "componentType" : 5123,
            "count" : 72,
            "type" : "SCALAR"
        },
        {
            "bufferView" : 28,
            "componentType" : 5126,
            "count" : 24,
            "max" : [
                0.030443822965025902,
                0.0057630110532045364,
                -0.012534457258880138
            ],
            "min" : [
                0.01823945716023445,
                -0.004874929320067167,
                -0.023341918364167213
            ],
            "type" : "VEC3"
        },
        {
            "bufferView" : 29,
            "componentType" : 5126,
            "count" : 24,
            "type" : "VEC3"
        },
        {
            "bufferView" : 30,
            "componentType" : 5126,
            "count" : 24,
            "type" : "VEC2"
        },
        {
            "bufferView" : 31,
            "componentType" : 5123,
            "count" : 36,
            "type" : "SCALAR"
        }
    ],
    "bufferViews" : [
        {
            "buffer" : 0,
            "byteLength" : 1296,
            "byteOffset" : 0
        },
        {
            "buffer" : 0,
            "byteLength" : 1296,
            "byteOffset" : 1296
        },
        {
            "buffer" : 0,
            "byteLength" : 864,
            "byteOffset" : 2592
        },
        {
            "buffer" : 0,
            "byteLength" : 312,
            "byteOffset" : 3456
        },
        {
            "buffer" : 0,
            "byteLength" : 576,
            "byteOffset" : 3768
        },
        {
            "buffer" : 0,
            "byteLength" : 576,
            "byteOffset" : 4344
        },
        {
            "buffer" : 0,
            "byteLength" : 384,
            "byteOffset" : 4920
        },
        {
            "buffer" : 0,
            "byteLength" : 144,
            "byteOffset" : 5304
        },
        {
            "buffer" : 0,
            "byteLength" : 864,
            "byteOffset" : 5448
        },
        {
            "buffer" : 0,
            "byteLength" : 864,
            "byteOffset" : 6312
        },
        {
            "buffer" : 0,
            "byteLength" : 576,
            "byteOffset" : 7176
        },
        {
            "buffer" : 0,
            "byteLength" : 264,
            "byteOffset" : 7752
        },
        {
            "buffer" : 0,
            "byteLength" : 2304,
            "byteOffset" : 8016
        },
        {
            "buffer" : 0,
            "byteLength" : 2304,
            "byteOffset" : 10320
        },
        {
            "buffer" : 0,
            "byteLength" : 1536,
            "byteOffset" : 12624
        },
        {
            "buffer" : 0,
            "byteLength" : 576,
            "byteOffset" : 14160
        },
        {
            "buffer" : 0,
            "byteLength" : 1632,
            "byteOffset" : 14736
        },
        {
            "buffer" : 0,
            "byteLength" : 1632,
            "byteOffset" : 16368
        },
        {
            "buffer" : 0,
            "byteLength" : 1088,
            "byteOffset" : 18000
        },
        {
            "buffer" : 0,
            "byteLength" : 456,
            "byteOffset" : 19088
        },
        {
            "buffer" : 0,
            "byteLength" : 288,
            "byteOffset" : 19544
        },
        {
            "buffer" : 0,
            "byteLength" : 288,
            "byteOffset" : 19832
        },
        {
            "buffer" : 0,
            "byteLength" : 192,
            "byteOffset" : 20120
        },
        {
            "buffer" : 0,
            "byteLength" : 72,
            "byteOffset" : 20312
        },
        {
            "buffer" : 0,
            "byteLength" : 576,
            "byteOffset" : 20384
        },
        {
            "buffer" : 0,
            "byteLength" : 576,
            "byteOffset" : 20960
        },
        {
            "buffer" : 0,
            "byteLength" : 384,
            "byteOffset" : 21536
        },
        {
            "buffer" : 0,
            "byteLength" : 144,
            "byteOffset" : 21920
        },
        {
            "buffer" : 0,
            "byteLength" : 288,
            "byteOffset" : 22064
        },
        {
            "buffer" : 0,
            "byteLength" : 288,
            "byteOffset" : 22352
        },
        {
            "buffer" : 0,
            "byteLength" : 192,
            "byteOffset" : 22640
        },
        {
            "buffer" : 0,
            "byteLength" : 72,
            "byteOffset" : 22832
        }
    ],
    "buffers" : [
        {
            "byteLength" : 22904,
            "uri" : "controller-left.bin"
        }
    ]
}
