{
    "asset" : {
        "generator" : "Khronos glTF Blender I/O v0.9.36",
        "version" : "2.0"
    },
    "scene" : 0,
    "scenes" : [
        {
            "name" : "Scene",
            "nodes" : [
                0,
                1,
                2
            ]
        }
    ],
    "nodes" : [
        {
            "mesh" : 0,
            "name" : "mesh340565441",
            "rotation" : [
                -0.27535855770111084,
                0.2625792622566223,
                -0.6512892842292786,
                -0.6565455794334412
            ],
            "scale" : [
                0.15000000596046448,
                0.15000000596046448,
                0.15000000596046448
            ],
            "translation" : [
                0.002365116961300373,
                -0.024121612310409546,
                -0.046547919511795044
            ]
        },
        {
            "name" : "Lamp",
            "rotation" : [
                0.16907575726509094,
                0.7558803558349609,
                -0.27217137813568115,
                0.570947527885437
            ],
            "translation" : [
                4.076245307922363,
                5.903861999511719,
                -1.0054539442062378
            ]
        },
        {
            "name" : "Camera",
            "rotation" : [
                0.483536034822464,
                0.33687159419059753,
                -0.20870360732078552,
                0.7804827094078064
            ],
            "translation" : [
                7.481131553649902,
                5.34366512298584,
                6.5076398849487305
            ]
        }
    ],
    "materials" : [
        {
            "doubleSided" : true,
            "name" : "mat15",
            "pbrMetallicRoughness" : {}
        },
        {
            "doubleSided" : true,
            "name" : "mat8",
            "pbrMetallicRoughness" : {}
        },
        {
            "doubleSided" : true,
            "name" : "mat12",
            "pbrMetallicRoughness" : {}
        },
        {
            "doubleSided" : true,
            "name" : "mat5",
            "pbrMetallicRoughness" : {}
        },
        {
            "doubleSided" : true,
            "name" : "mat16",
            "pbrMetallicRoughness" : {}
        },
        {
            "doubleSided" : true,
            "name" : "mat22",
            "pbrMetallicRoughness" : {}
        },
        {
            "doubleSided" : true,
            "name" : "mat17",
            "pbrMetallicRoughness" : {}
        },
        {
            "doubleSided" : true,
            "name" : "mat9",
            "pbrMetallicRoughness" : {}
        }
    ],
    "meshes" : [
        {
            "name" : "mesh340565441",
            "primitives" : [
                {
                    "attributes" : {
                        "POSITION" : 0,
                        "NORMAL" : 1,
                        "TEXCOORD_0" : 2
                    },
                    "indices" : 3,
                    "material" : 0
                },
                {
                    "attributes" : {
                        "POSITION" : 4,
                        "NORMAL" : 5,
                        "TEXCOORD_0" : 6
                    },
                    "indices" : 7,
                    "material" : 1
                },
                {
                    "attributes" : {
                        "POSITION" : 8,
                        "NORMAL" : 9,
                        "TEXCOORD_0" : 10
                    },
                    "indices" : 11,
                    "material" : 2
                },
                {
                    "attributes" : {
                        "POSITION" : 12,
                        "NORMAL" : 13,
                        "TEXCOORD_0" : 14
                    },
                    "indices" : 15,
                    "material" : 3
                },
                {
                    "attributes" : {
                        "POSITION" : 16,
                        "NORMAL" : 17,
                        "TEXCOORD_0" : 18
                    },
                    "indices" : 19,
                    "material" : 4
                },
                {
                    "attributes" : {
                        "POSITION" : 20,
                        "NORMAL" : 21,
                        "TEXCOORD_0" : 22
                    },
                    "indices" : 23,
                    "material" : 5
                },
                {
                    "attributes" : {
                        "POSITION" : 24,
                        "NORMAL" : 25,
                        "TEXCOORD_0" : 26
                    },
                    "indices" : 27,
                    "material" : 6
                },
                {
                    "attributes" : {
                        "POSITION" : 28,
                        "NORMAL" : 29,
                        "TEXCOORD_0" : 30
                    },
                    "indices" : 23,
                    "material" : 7
                }
            ]
        }
    ],
    "accessors" : [
        {
            "bufferView" : 0,
            "componentType" : 5126,
            "count" : 108,
            "max" : [
                0.16020849347114563,
                0.2645834982395172,
                0.08520817756652832
            ],
            "min" : [
                -0.15979160368442535,
                -0.21541659533977509,
                0.005208135116845369
            ],
            "type" : "VEC3"
        },
        {
            "bufferView" : 1,
            "componentType" : 5126,
            "count" : 108,
            "type" : "VEC3"
        },
        {
            "bufferView" : 2,
            "componentType" : 5126,
            "count" : 108,
            "type" : "VEC2"
        },
        {
            "bufferView" : 3,
            "componentType" : 5123,
            "count" : 156,
            "type" : "SCALAR"
        },
        {
            "bufferView" : 4,
            "componentType" : 5126,
            "count" : 48,
            "max" : [
                0.11020849645137787,
                0.2645834982395172,
                0.08520817756652832
            ],
            "min" : [
                -0.19979159533977509,
                0.05458331108093262,
                -0.09479188919067383
            ],
            "type" : "VEC3"
        },
        {
            "bufferView" : 5,
            "componentType" : 5126,
            "count" : 48,
            "type" : "VEC3"
        },
        {
            "bufferView" : 6,
            "componentType" : 5126,
            "count" : 48,
            "type" : "VEC2"
        },
        {
            "bufferView" : 7,
            "componentType" : 5123,
            "count" : 72,
            "type" : "SCALAR"
        },
        {
            "bufferView" : 8,
            "componentType" : 5126,
            "count" : 72,
            "max" : [
                -0.049791570752859116,
                0.04458343982696533,
                0.06520813703536987
            ],
            "min" : [
                -0.08979153633117676,
                0.004583477973937988,
                0.025208119302988052
            ],
            "type" : "VEC3"
        },
        {
            "bufferView" : 9,
            "componentType" : 5126,
            "count" : 72,
            "type" : "VEC3"
        },
        {
            "bufferView" : 10,
            "componentType" : 5126,
            "count" : 72,
            "type" : "VEC2"
        },
        {
            "bufferView" : 11,
            "componentType" : 5123,
            "count" : 132,
            "type" : "SCALAR"
        },
        {
            "bufferView" : 12,
            "componentType" : 5126,
            "count" : 192,
            "max" : [
                0.040208641439676285,
                0.07458347082138062,
                0.08520817756652832
            ],
            "min" : [
                -0.19979159533977509,
                -0.21541659533977509,
                -0.15479199588298798
            ],
            "type" : "VEC3"
        },
        {
            "bufferView" : 13,
            "componentType" : 5126,
            "count" : 192,
            "type" : "VEC3"
        },
        {
            "bufferView" : 14,
            "componentType" : 5126,
            "count" : 192,
            "type" : "VEC2"
        },
        {
            "bufferView" : 15,
            "componentType" : 5123,
            "count" : 288,
            "type" : "SCALAR"
        },
        {
            "bufferView" : 16,
            "componentType" : 5126,
            "count" : 136,
            "max" : [
                0.5582852363586426,
                0.2845833897590637,
                0.3353811502456665
            ],
            "min" : [
                -0.23979149758815765,
                -0.2354165017604828,
                -0.0747917890548706
            ],
            "type" : "VEC3"
        },
        {
            "bufferView" : 17,
            "componentType" : 5126,
            "count" : 136,
            "type" : "VEC3"
        },
        {
            "bufferView" : 18,
            "componentType" : 5126,
            "count" : 136,
            "type" : "VEC2"
        },
        {
            "bufferView" : 19,
            "componentType" : 5123,
            "count" : 228,
            "type" : "SCALAR"
        },
        {
            "bufferView" : 20,
            "componentType" : 5126,
            "count" : 24,
            "max" : [
                0.20020850002765656,
                -0.00541651202365756,
                -0.07479190826416016
            ],
            "min" : [
                0.1202085018157959,
                -0.08541644364595413,
                -0.09479188919067383
            ],
            "type" : "VEC3"
        },
        {
            "bufferView" : 21,
            "componentType" : 5126,
            "count" : 24,
            "type" : "VEC3"
        },
        {
            "bufferView" : 22,
            "componentType" : 5126,
            "count" : 24,
            "type" : "VEC2"
        },
        {
            "bufferView" : 23,
            "componentType" : 5123,
            "count" : 36,
            "type" : "SCALAR"
        },
        {
            "bufferView" : 24,
            "componentType" : 5126,
            "count" : 48,
            "max" : [
                0.401400089263916,
                0.12203703820705414,
                0.2585950493812561
            ],
            "min" : [
                -0.17979149520397186,
                -0.05541646108031273,
                0.10520809888839722
            ],
            "type" : "VEC3"
        },
        {
            "bufferView" : 25,
            "componentType" : 5126,
            "count" : 48,
            "type" : "VEC3"
        },
        {
            "bufferView" : 26,
            "componentType" : 5126,
            "count" : 48,
            "type" : "VEC2"
        },
        {
            "bufferView" : 27,
            "componentType" : 5123,
            "count" : 72,
            "type" : "SCALAR"
        },
        {
            "bufferView" : 28,
            "componentType" : 5126,
            "count" : 24,
            "max" : [
                -0.03979146108031273,
                0.20458349585533142,
                -0.07479190826416016
            ],
            "min" : [
                -0.11979140341281891,
                0.124583400785923,
                -0.09479188919067383
            ],
            "type" : "VEC3"
        },
        {
            "bufferView" : 29,
            "componentType" : 5126,
            "count" : 24,
            "type" : "VEC3"
        },
        {
            "bufferView" : 30,
            "componentType" : 5126,
            "count" : 24,
            "type" : "VEC2"
        }
    ],
    "bufferViews" : [
        {
            "buffer" : 0,
            "byteLength" : 1296,
            "byteOffset" : 0
        },
        {
            "buffer" : 0,
            "byteLength" : 1296,
            "byteOffset" : 1296
        },
        {
            "buffer" : 0,
            "byteLength" : 864,
            "byteOffset" : 2592
        },
        {
            "buffer" : 0,
            "byteLength" : 312,
            "byteOffset" : 3456
        },
        {
            "buffer" : 0,
            "byteLength" : 576,
            "byteOffset" : 3768
        },
        {
            "buffer" : 0,
            "byteLength" : 576,
            "byteOffset" : 4344
        },
        {
            "buffer" : 0,
            "byteLength" : 384,
            "byteOffset" : 4920
        },
        {
            "buffer" : 0,
            "byteLength" : 144,
            "byteOffset" : 5304
        },
        {
            "buffer" : 0,
            "byteLength" : 864,
            "byteOffset" : 5448
        },
        {
            "buffer" : 0,
            "byteLength" : 864,
            "byteOffset" : 6312
        },
        {
            "buffer" : 0,
            "byteLength" : 576,
            "byteOffset" : 7176
        },
        {
            "buffer" : 0,
            "byteLength" : 264,
            "byteOffset" : 7752
        },
        {
            "buffer" : 0,
            "byteLength" : 2304,
            "byteOffset" : 8016
        },
        {
            "buffer" : 0,
            "byteLength" : 2304,
            "byteOffset" : 10320
        },
        {
            "buffer" : 0,
            "byteLength" : 1536,
            "byteOffset" : 12624
        },
        {
            "buffer" : 0,
            "byteLength" : 576,
            "byteOffset" : 14160
        },
        {
            "buffer" : 0,
            "byteLength" : 1632,
            "byteOffset" : 14736
        },
        {
            "buffer" : 0,
            "byteLength" : 1632,
            "byteOffset" : 16368
        },
        {
            "buffer" : 0,
            "byteLength" : 1088,
            "byteOffset" : 18000
        },
        {
            "buffer" : 0,
            "byteLength" : 456,
            "byteOffset" : 19088
        },
        {
            "buffer" : 0,
            "byteLength" : 288,
            "byteOffset" : 19544
        },
        {
            "buffer" : 0,
            "byteLength" : 288,
            "byteOffset" : 19832
        },
        {
            "buffer" : 0,
            "byteLength" : 192,
            "byteOffset" : 20120
        },
        {
            "buffer" : 0,
            "byteLength" : 72,
            "byteOffset" : 20312
        },
        {
            "buffer" : 0,
            "byteLength" : 576,
            "byteOffset" : 20384
        },
        {
            "buffer" : 0,
            "byteLength" : 576,
            "byteOffset" : 20960
        },
        {
            "buffer" : 0,
            "byteLength" : 384,
            "byteOffset" : 21536
        },
        {
            "buffer" : 0,
            "byteLength" : 144,
            "byteOffset" : 21920
        },
        {
            "buffer" : 0,
            "byteLength" : 288,
            "byteOffset" : 22064
        },
        {
            "buffer" : 0,
            "byteLength" : 288,
            "byteOffset" : 22352
        },
        {
            "buffer" : 0,
            "byteLength" : 192,
            "byteOffset" : 22640
        }
    ],
    "buffers" : [
        {
            "byteLength" : 22832,
            "uri" : "controller-left.bin"
        }
    ]
}
